<svg width="77" height="16" viewBox="0 0 77 16" fill="none" xmlns="http://www.w3.org/2000/svg">
<path d="M7.568 6.326H4.466V12.178C4.466 13.19 4.642 13.96 5.962 13.96C6.49 13.96 6.93 13.828 7.348 13.63V15.478C6.886 15.654 6.27 15.786 5.588 15.786C2.486 15.786 2.42 13.212 2.42 12.2V6.326H0.396V4.5H2.42V1.618H4.466V4.5H7.568V6.326ZM15.2496 4.214C17.7136 4.214 18.8576 6.062 18.8576 8.878V15.5H16.8116V8.878C16.8116 7.206 16.1736 6.084 14.6116 6.084C12.7856 6.084 11.4876 7.712 11.4876 10.154V15.5H9.44161V0.099999H11.4876V6.59C12.1696 5.116 13.5336 4.214 15.2496 4.214ZM26.338 4.214C27.988 4.214 29.022 5.49 29.022 7.14C29.022 7.844 28.824 8.526 28.56 9.098H26.404C26.734 8.57 26.866 8.064 26.866 7.602C26.866 6.7 26.36 6.106 25.568 6.106C24.27 6.106 23.39 7.712 23.39 10.132V15.5H21.344V4.5H23.39V6.37C24.006 5.006 25.018 4.214 26.338 4.214ZM38.4787 12.112H40.7007C40.0627 14.378 38.1927 15.786 35.5747 15.786C32.2307 15.786 30.1187 13.476 30.1187 10C30.1187 6.524 32.2527 4.214 35.6627 4.214C39.4247 4.214 41.2287 7.03 40.2607 10.66H32.2967C32.5167 12.728 33.6827 13.96 35.5747 13.96C36.9827 13.96 38.0607 13.256 38.4787 12.112ZM35.5967 5.996C33.7707 5.996 32.6267 7.096 32.3407 8.988H38.3907C38.5667 7.14 37.5547 5.996 35.5967 5.996ZM47.1219 4.214C50.2019 4.214 51.7199 6.216 51.7199 9.23V15.5H49.7839V13.564C48.9919 14.972 47.6279 15.786 45.8459 15.786C43.5799 15.786 42.0619 14.466 42.0619 12.508C42.0619 10.308 43.9979 8.944 47.0559 8.944C47.9359 8.944 48.8599 9.054 49.6739 9.274V9.23C49.6739 7.382 49.0359 6.04 47.0999 6.04C45.6039 6.04 44.6579 6.832 44.9879 8.284H42.8539C42.2599 5.908 44.3059 4.214 47.1219 4.214ZM46.1539 14.048C47.9579 14.048 49.4319 12.86 49.7399 10.968C48.9919 10.726 48.0679 10.594 47.2099 10.594C45.2519 10.594 44.1739 11.364 44.1739 12.53C44.1739 13.498 44.9219 14.048 46.1539 14.048ZM62.421 0.099999H64.467V15.5H62.421V13.762C61.585 15.038 60.265 15.786 58.615 15.786C55.711 15.786 53.687 13.476 53.687 10C53.687 6.546 55.689 4.214 58.615 4.214C60.265 4.214 61.585 4.962 62.421 6.238V0.099999ZM59.187 13.96C61.189 13.96 62.509 12.354 62.509 10C62.509 7.646 61.189 6.04 59.187 6.04C57.185 6.04 55.843 7.646 55.843 10C55.843 12.354 57.185 13.96 59.187 13.96ZM71.3726 15.786C68.3366 15.786 66.2906 14.202 66.5326 11.452H68.5126C68.2926 13.036 69.4146 14.092 71.3946 14.092C72.9126 14.092 73.9026 13.498 73.9026 12.552C73.9026 10.022 66.6866 11.738 66.6866 7.69C66.6866 5.556 68.7326 4.214 71.2406 4.214C74.1666 4.214 76.2126 5.974 75.6846 8.306H73.7046C74.0566 6.898 72.8906 5.908 71.1966 5.908C69.8326 5.908 68.7986 6.546 68.7986 7.514C68.7986 9.978 75.9926 8.218 75.9926 12.376C75.9926 14.51 74.1226 15.786 71.3726 15.786Z" fill="white"/>
</svg>
