<svg width="24" height="24" viewBox="0 0 24 24" fill="none" xmlns="http://www.w3.org/2000/svg">
<path d="M16.6571 11.255C16.5692 11.2129 16.4799 11.1723 16.3895 11.1335C16.2321 8.23217 14.6467 6.57114 11.9847 6.55414C11.9726 6.55407 11.9606 6.55407 11.9486 6.55407C10.3564 6.55407 9.03214 7.23371 8.21709 8.47044L9.68111 9.47472C10.29 8.55093 11.2456 8.354 11.9493 8.354C11.9574 8.354 11.9656 8.354 11.9736 8.35407C12.8501 8.35966 13.5115 8.6145 13.9396 9.11148C14.2511 9.47329 14.4595 9.97327 14.5627 10.6043C13.7855 10.4722 12.9451 10.4316 12.0467 10.4831C9.51575 10.6289 7.88868 12.105 7.99796 14.156C8.05341 15.1964 8.57172 16.0915 9.45734 16.6762C10.2061 17.1704 11.1705 17.4122 12.1728 17.3574C13.4964 17.2849 14.5348 16.7799 15.2592 15.8564C15.8094 15.1552 16.1574 14.2464 16.311 13.1014C16.9418 13.4821 17.4093 13.983 17.6675 14.5853C18.1065 15.609 18.1321 17.2912 16.7595 18.6627C15.5568 19.8642 14.1112 20.384 11.9264 20.4C9.50295 20.3821 7.67009 19.6048 6.47842 18.0899C5.36252 16.6714 4.78582 14.6225 4.7643 12C4.78582 9.3775 5.36252 7.32856 6.47842 5.91003C7.67009 4.39513 9.50291 3.61793 11.9264 3.59992C14.3675 3.61806 16.2323 4.39901 17.4696 5.92121C18.0762 6.66768 18.5336 7.60642 18.8352 8.70096L20.5508 8.24322C20.1853 6.89597 19.6102 5.73503 18.8275 4.77223C17.2413 2.8207 14.9215 1.82072 11.9324 1.79999H11.9204C8.93742 1.82065 6.64354 2.82443 5.10251 4.78341C3.7312 6.52667 3.02384 8.95228 3.00007 11.9928L3 12L3.00007 12.0072C3.02384 15.0477 3.7312 17.4734 5.10251 19.2166C6.64354 21.1755 8.93742 22.1794 11.9204 22.2H11.9324C14.5844 22.1816 16.4538 21.4873 17.9938 19.9487C20.0086 17.9358 19.9479 15.4126 19.2839 13.8637C18.8074 12.753 17.8991 11.8508 16.6571 11.255ZM12.0781 15.5601C10.9688 15.6226 9.8164 15.1247 9.75958 14.0583C9.71746 13.2676 10.3223 12.3853 12.1461 12.2801C12.355 12.2681 12.5599 12.2622 12.7613 12.2622C13.4238 12.2622 14.0435 12.3266 14.607 12.4497C14.3968 15.0743 13.1641 15.5005 12.0781 15.5601Z" fill="white"/>
</svg>
